<svg xmlns="http://www.w3.org/2000/svg" viewBox="0 0 1871.92 314.1" width="1871.92" height="314.1" xmlns:c2pa="http://c2pa.org/manifest"><metadata><c2pa:manifest>AAAWgmp1bWIAAAAeanVtZGMycGEAEQAQgAAAqgA4m3EDYzJwYQAAABZcanVtYgAAAEdqdW1kYzJtYQARABCAAACqADibcQN1cm46YzJwYToyNjBmYzY4OS03NDM4LTQwN2QtODlhOC03MTc2ZGNmNjE2YjAAAAADl2p1bWIAAAApanVtZGMyYXMAEQAQgAAAqgA4m3EDYzJwYS5hc3NlcnRpb25zAAAAALxqdW1iAAAARGp1bWRjYm9yABEAEIAAAKoAOJtxE2MycGEuaW5ncmVkaWVudC52MwAAAAAYYzJzaKsIWBqlikRC6OS2bgBEX8IAAABwY2JvcqNpZGM6Zm9ybWF0bWltYWdlL3N2Zyt4bWxqaW5zdGFuY2VJRHgseG1wOmlpZDpkNjhhZTMwMy1iOTM1LTQ4NTUtYmNmMy1iMzg0OTM5M2Q0NjFscmVsYXRpb25zaGlwaHBhcmVudE9mAAAB4mp1bWIAAABBanVtZGNib3IAEQAQgAAAqgA4m3ETYzJwYS5hY3Rpb25zLnYyAAAAABhjMnNor08tOm5skEmK3siC00HCtwAAAZljYm9yomdhY3Rpb25zgqJmYWN0aW9ua2MycGEub3BlbmVkanBhcmFtZXRlcnOha2luZ3JlZGllbnRzgaJjdXJseC1zZWxmI2p1bWJmPWMycGEuYXNzZXJ0aW9ucy9jMnBhLmluZ3JlZGllbnQudjNkaGFzaFgg8c+FNZ5zuboAHyeur1A5Ossec0WbOPXjK56Xuo5dSUCkZmFjdGlvbngdY29tLmFudGhyb3BpYy5jbGF1ZGUucHJvdmlkZWRqcGFyYW1ldGVyc6F4H2NvbS5hbnRocm9waWMub3JpZ2luLWNvbmZpZGVuY2VndW5rbm93bmtkZXNjcmlwdGlvbnhmQ2xhdWRlIHByb3ZpZGVkIHRoaXMgZmlsZSBhdCB0aGUgcmVxdWVzdCBvZiBhIHVzZXIgYW5kIG1heSBoYXZlIGNyZWF0ZWQgb3IgbW9kaWZpZWQgdGhlIGZpbGUgY29udGVudHMubXNvZnR3YXJlQWdlbnShZG5hbWVmQ2xhdWRlcmFsbEFjdGlvbnNJbmNsdWRlZPUAAADIanVtYgAAAEBqdW1kY2JvcgARABCAAACqADibcRNjMnBhLmhhc2guZGF0YQAAAAAYYzJzaAl9Hery0BQAsuukfgMpsewAAACAY2JvcqVjYWxnZnNoYTI1NmNwYWRNAAAAAAAAAAAAAAAAAGRoYXNoWCBCWjaND7r5UutkV2h4NHrzRh8ezG8TmLZmtvqjBFrVNGRuYW1lbmp1bWJmIG1hbmlmZXN0amV4Y2x1c2lvbnOBomVzdGFydBiiZmxlbmd0aBkeBAAAAj5qdW1iAAAAJ2p1bWRjMmNsABEAEIAAAKoAOJtxA2MycGEuY2xhaW0udjIAAAACD2Nib3KlY2FsZ2ZzaGEyNTZpc2lnbmF0dXJleE1zZWxmI2p1bWJmPS9jMnBhL3VybjpjMnBhOjI2MGZjNjg5LTc0MzgtNDA3ZC04OWE4LTcxNzZkY2Y2MTZiMC9jMnBhLnNpZ25hdHVyZWppbnN0YW5jZUlEeCx4bXA6aWlkOmMyNzU4ZDQzLWEzMGQtNDdkNy1iM2U4LWE5YTZkNmNhZjJhYXJjcmVhdGVkX2Fzc2VydGlvbnODomN1cmx4LXNlbGYjanVtYmY9YzJwYS5hc3NlcnRpb25zL2MycGEuaW5ncmVkaWVudC52M2RoYXNoWCDxz4U1nnO5ugAfJ66vUDk6yx5zRZs49eMrnpe6jl1JQKJjdXJseCpzZWxmI2p1bWJmPWMycGEuYXNzZXJ0aW9ucy9jMnBhLmFjdGlvbnMudjJkaGFzaFggnGYT7f22HyBimabHeKoJPmUxBoXMlfpAsjVMsyCiVE2iY3VybHgpc2VsZiNqdW1iZj1jMnBhLmFzc2VydGlvbnMvYzJwYS5oYXNoLmRhdGFkaGFzaFggp19k7u5qt/1ps1NBrS6bzliHOe4ZDNE+em2JGJ4XtRd0Y2xhaW1fZ2VuZXJhdG9yX2luZm+jZG5hbWVvQW50aHJvcGljIEZpbGVzZ3ZlcnNpb25lMS4wLjBrc3BlY1ZlcnNpb25lMi40LjAAABA4anVtYgAAAChqdW1kYzJjcwARABCAAACqADibcQNjMnBhLnNpZ25hdHVyZQAAABAIY2JvctKEWQISogEmGCFZAgowggIGMIIBjaADAgECAhRA5aAK7sI50L64g/oGQgU9Z1UTADAKBggqhkjOPQQDAzBJMRcwFQYDVQQKEw5BbnRocm9waWMsIFBCQzEuMCwGA1UEAxMlQW50aHJvcGljIENvbnRlbnQgQ3JlZGVudGlhbHMgUm9vdCBDQTAeFw0yNjA4MDcxODQzNTZaFw0yODA4MDYxOTQzNTZaMEQxFzAVBgNVBAoTDkFudGhyb3BpYywgUEJDMSkwJwYDVQQDEyBBbnRocm9waWMgQ2xhdWRlIENvbnRlbnQgU2lnbmluZzBZMBMGByqGSM49AgEGCCqGSM49AwEHA0IABJh6CmvLUBgFFNU0vUKlOVtE6djd17L5SuwX0LemFisBM3dkd/3cyjxFA3Qo5S46fX0/ihY0VZ7mfb9KF703t5OjWDBWMA4GA1UdDwEB/wQEAwIHgDAVBgNVHSUEDjAMBgorBgEEAYPoXgIBMAwGA1UdEwEB/wQCMAAwHwYDVR0jBBgwFoAUzlHiBIFOZFsj+OPEz5o+nMHXXMIwCgYIKoZIzj0EAwMDZwAwZAIwMXMdFJ4BetLLVY7ORuE9noqbbAZOZn/aArXyTwFAZfKrPzxF2vPoJNf1+UCdg1XGAjBwX1zd9WGqYkqmL5SFqw1QySjr1zJfpJM9+1rdDwSPLMOPOjKuiXjoU/pUUeG9RwmhY3BhZFkNngAAAAAAAAAAAAAAAAAAAAAAAAAAAAAAAAAAAAAAAAAAAAAAAAAAAAAAAAAAAAAAAAAAAAAAAAAAAAAAAAAAAAAAAAAAAAAAAAAAAAAAAAAAAAAAAAAAAAAAAAAAAAAAAAAAAAAAAAAAAAAAAAAAAAAAAAAAAAAAAAAAAAAAAAAAAAAAAAAAAAAAAAAAAAAAAAAAAAAAAAAAAAAAAAAAAAAAAAAAAAAAAAAAAAAAAAAAAAAAAAAAAAAAAAAAAAAAAAAAAAAAAAAAAAAAAAAAAAAAAAAAAAAAAAAAAAAAAAAAAAAAAAAAAAAAAAAAAAAAAAAAAAAAAAAAAAAAAAAAAAAAAAAAAAAAAAAAAAAAAAAAAAAAAAAAAAAAAAAAAAAAAAAAAAAAAAAAAAAAAAAAAAAAAAAAAAAAAAAAAAAAAAAAAAAAAAAAAAAAAAAAAAAAAAAAAAAAAAAAAAAAAAAAAAAAAAAAAAAAAAAAAAAAAAAAAAAAAAAAAAAAAAAAAAAAAAAAAAAAAAAAAAAAAAAAAAAAAAAAAAAAAAAAAAAAAAAAAAAAAAAAAAAAAAAAAAAAAAAAAAAAAAAAAAAAAAAAAAAAAAAAAAAAAAAAAAAAAAAAAAAAAAAAAAAAAAAAAAAAAAAAAAAAAAAAAAAAAAAAAAAAAAAAAAAAAAAAAAAAAAAAAAAAAAAAAAAAAAAAAAAAAAAAAAAAAAAAAAAAAAAAAAAAAAAAAAAAAAAAAAAAAAAAAAAAAAAAAAAAAAAAAAAAAAAAAAAAAAAAAAAAAAAAAAAAAAAAAAAAAAAAAAAAAAAAAAAAAAAAAAAAAAAAAAAAAAAAAAAAAAAAAAAAAAAAAAAAAAAAAAAAAAAAAAAAAAAAAAAAAAAAAAAAAAAAAAAAAAAAAAAAAAAAAAAAAAAAAAAAAAAAAAAAAAAAAAAAAAAAAAAAAAAAAAAAAAAAAAAAAAAAAAAAAAAAAAAAAAAAAAAAAAAAAAAAAAAAAAAAAAAAAAAAAAAAAAAAAAAAAAAAAAAAAAAAAAAAAAAAAAAAAAAAAAAAAAAAAAAAAAAAAAAAAAAAAAAAAAAAAAAAAAAAAAAAAAAAAAAAAAAAAAAAAAAAAAAAAAAAAAAAAAAAAAAAAAAAAAAAAAAAAAAAAAAAAAAAAAAAAAAAAAAAAAAAAAAAAAAAAAAAAAAAAAAAAAAAAAAAAAAAAAAAAAAAAAAAAAAAAAAAAAAAAAAAAAAAAAAAAAAAAAAAAAAAAAAAAAAAAAAAAAAAAAAAAAAAAAAAAAAAAAAAAAAAAAAAAAAAAAAAAAAAAAAAAAAAAAAAAAAAAAAAAAAAAAAAAAAAAAAAAAAAAAAAAAAAAAAAAAAAAAAAAAAAAAAAAAAAAAAAAAAAAAAAAAAAAAAAAAAAAAAAAAAAAAAAAAAAAAAAAAAAAAAAAAAAAAAAAAAAAAAAAAAAAAAAAAAAAAAAAAAAAAAAAAAAAAAAAAAAAAAAAAAAAAAAAAAAAAAAAAAAAAAAAAAAAAAAAAAAAAAAAAAAAAAAAAAAAAAAAAAAAAAAAAAAAAAAAAAAAAAAAAAAAAAAAAAAAAAAAAAAAAAAAAAAAAAAAAAAAAAAAAAAAAAAAAAAAAAAAAAAAAAAAAAAAAAAAAAAAAAAAAAAAAAAAAAAAAAAAAAAAAAAAAAAAAAAAAAAAAAAAAAAAAAAAAAAAAAAAAAAAAAAAAAAAAAAAAAAAAAAAAAAAAAAAAAAAAAAAAAAAAAAAAAAAAAAAAAAAAAAAAAAAAAAAAAAAAAAAAAAAAAAAAAAAAAAAAAAAAAAAAAAAAAAAAAAAAAAAAAAAAAAAAAAAAAAAAAAAAAAAAAAAAAAAAAAAAAAAAAAAAAAAAAAAAAAAAAAAAAAAAAAAAAAAAAAAAAAAAAAAAAAAAAAAAAAAAAAAAAAAAAAAAAAAAAAAAAAAAAAAAAAAAAAAAAAAAAAAAAAAAAAAAAAAAAAAAAAAAAAAAAAAAAAAAAAAAAAAAAAAAAAAAAAAAAAAAAAAAAAAAAAAAAAAAAAAAAAAAAAAAAAAAAAAAAAAAAAAAAAAAAAAAAAAAAAAAAAAAAAAAAAAAAAAAAAAAAAAAAAAAAAAAAAAAAAAAAAAAAAAAAAAAAAAAAAAAAAAAAAAAAAAAAAAAAAAAAAAAAAAAAAAAAAAAAAAAAAAAAAAAAAAAAAAAAAAAAAAAAAAAAAAAAAAAAAAAAAAAAAAAAAAAAAAAAAAAAAAAAAAAAAAAAAAAAAAAAAAAAAAAAAAAAAAAAAAAAAAAAAAAAAAAAAAAAAAAAAAAAAAAAAAAAAAAAAAAAAAAAAAAAAAAAAAAAAAAAAAAAAAAAAAAAAAAAAAAAAAAAAAAAAAAAAAAAAAAAAAAAAAAAAAAAAAAAAAAAAAAAAAAAAAAAAAAAAAAAAAAAAAAAAAAAAAAAAAAAAAAAAAAAAAAAAAAAAAAAAAAAAAAAAAAAAAAAAAAAAAAAAAAAAAAAAAAAAAAAAAAAAAAAAAAAAAAAAAAAAAAAAAAAAAAAAAAAAAAAAAAAAAAAAAAAAAAAAAAAAAAAAAAAAAAAAAAAAAAAAAAAAAAAAAAAAAAAAAAAAAAAAAAAAAAAAAAAAAAAAAAAAAAAAAAAAAAAAAAAAAAAAAAAAAAAAAAAAAAAAAAAAAAAAAAAAAAAAAAAAAAAAAAAAAAAAAAAAAAAAAAAAAAAAAAAAAAAAAAAAAAAAAAAAAAAAAAAAAAAAAAAAAAAAAAAAAAAAAAAAAAAAAAAAAAAAAAAAAAAAAAAAAAAAAAAAAAAAAAAAAAAAAAAAAAAAAAAAAAAAAAAAAAAAAAAAAAAAAAAAAAAAAAAAAAAAAAAAAAAAAAAAAAAAAAAAAAAAAAAAAAAAAAAAAAAAAAAAAAAAAAAAAAAAAAAAAAAAAAAAAAAAAAAAAAAAAAAAAAAAAAAAAAAAAAAAAAAAAAAAAAAAAAAAAAAAAAAAAAAAAAAAAAAAAAAAAAAAAAAAAAAAAAAAAAAAAAAAAAAAAAAAAAAAAAAAAAAAAAAAAAAAAAAAAAAAAAAAAAAAAAAAAAAAAAAAAAAAAAAAAAAAAAAAAAAAAAAAAAAAAAAAAAAAAAAAAAAAAAAAAAAAAAAAAAAAAAAAAAAAAAAAAAAAAAAAAAAAAAAAAAAAAAAAAAAAAAAAAAAAAAAAAAAAAAAAAAAAAAAAAAAAAAAAAAAAAAAAAAAAAAAAAAAAAAAAAAAAAAAAAAAAAAAAAAAAAAAAAAAAAAAAAAAAAAAAAAAAAAAAAAAAAAAAAAAAAAAAAAAAAAAAAAAAAAAAAAAAAAAAAAAAAAAAAAAAAAAAAAAAAAAAAAAAAAAAAAAAAAAAAAAAAAAAAAAAAAAAAAAAAAAAAAAAAAAAAAAAAAAAAAAAAAAAAAAAAAAAAAAAAAAAAAAAAAAAAAAAAAAAAAAAAAAAAAAAAAAAAAAAAAAAAAAAAAAAAAAAAAAAAAAAAAAAAAAAAAAAAAAAAAAAAAAAAAAAAAAAAAAAAAAAAAAAAAAAAAAAAAAAAAAAAAAAAAAAAAAAAAAAAAAAAAAAAAAAAAAAAAAAAAAAAAAAAAAAAAAAAAAAAAAAAAAAAAAAAAAAAAAAAAAAAAAAAAAAAAAAAAAAAAAAAAAAAAAAAAAAAAAAAAAAAAAAAAAAAAAAAAAAAAAAAAAAAAAAAAAAAAAAAAAAAAAAAAAAAAAAAAAAAAAAAAAAAAAAAAAAAAAAAAAAAAAAAAAAAAAAAAAAAAAAAAAAAAAAAAAAAAAAAAAAAAAAAAAAAAAAAAAAAAAAAAAAAAAAAAAAAAAAAAAAAAAAAAAAAAAAAAAAAAAAAAAAAAAAAAAAAAAAAAAAAAAAAAAAAAAAAAAAAAAAAAAAAAAAAAAAAAAAAAAAAAAAAAAAAAAAAAAAAAAAAAAAAAAAAAAAAAAAAAAAAAAAAAAAAAAAAAAAAAAAAAAAAAAAAAAAAAAAAAAAAAAAAAAAAAAAAAAAAAAAAAAAAAAAAAAAAAAAAAAAAAAAAAAAAAAAAAAAAAAAAAAAAAAAAAAAAAAAAAAAAAAAAAAAAAAAAAAAAAAAAAAAAAAAAAAAAAAAAAAAAAAAAAAAAAAAAAAAAAAAAAAAAAAAAAAAAAAAAAAAAAAAAAAAAAAAAAAAAAAAAAAAAAAAAAAAAAAAAAAAAAAAAAAAAAAAAAAAAAAAAAAAAAAAAAAAAAAAAAAAAAAAAAAAAAAAAAAAAAAAAAAAAAAAAAAAAAAAAAAAAAAAAAAAAAAAAAAAAAAAAAAAAAAAAAAAAAAAAAAAAAAAAAAAAAAAAAAAAAAAAAAAAAAAAAAAAAAAAAAAAAAAAAAAAAAAAAAAAAAAAAAAAAAAAAAAAAAAAAAAAAAAAAAAAAAAAAAAAAAAAAAAAAAAAAAAAAAAAAAAAAAAAAAAAAAAAAAAAAAAAAAAAAAAAAAAAAAAAAAAAAAAAAAAAAAAAAAAAAAAAAAAAAAAAAAAAAAAAAAAAAAAAAAAAAAAAAAAAAAAAAAAAAAAAAAAAAAAAAAAAAAAAAAAAAAAAAAAAAAAAAAAAAAAAAAAAAAAAAAAAAAAAAAAAAAAAAAAAAAAAAAAAAAAAAAAAAAAAAAAAAAAAAAAAAAAAAAAAAAAAPZYQMzPKvYGv6e9MbpJuviMlInvibqOjGKaEwGvdP6IwQiywqjvG9wmCB5Yd/0mg0hJfcq2HtvS+N/Lx5gj3g+Dpgg=</c2pa:manifest></metadata>
  <title>Visyn Studio (dark background)</title>
  <g id="prism-v" stroke-width="0.6" stroke-linejoin="round">
    <path fill="#4E781B" stroke="#4E781B" d="M134.2 0 L0 0 L95.44 105.37Z M147.9 314.1 L195.12 215.42 L140.99 155.66Z"/>
    <path fill="#3C591E" stroke="#3C591E" d="M0 0 L75.34 160 L95.44 105.37Z M134.2 0 L95.44 105.37 L140.99 155.66Z"/>
    <path fill="#313C1D" stroke="#313C1D" d="M75.34 160 L147.9 314.1 L140.99 155.66 L95.44 105.37Z"/>
    <path fill="#688857" stroke="#688857" d="M216.2 171.37 L134.2 0 L140.99 155.66 L195.12 215.42Z"/>
    <path fill="#653B7B" stroke="#653B7B" d="M432.4 0 L298.2 0 L336.96 105.37Z M237.28 215.42 L284.5 314.1 L291.41 155.66Z"/>
    <path fill="#3E2154" stroke="#3E2154" d="M357.06 160 L432.4 0 L336.96 105.37Z M298.2 0 L291.41 155.66 L336.96 105.37Z"/>
    <path fill="#221131" stroke="#221131" d="M284.5 314.1 L357.06 160 L336.96 105.37 L291.41 155.66Z"/>
    <path fill="#FFFF94" stroke="#FFFF94" d="M216.2 171.37 L237.28 215.42 L291.41 155.66 L298.2 0Z"/>
    <path fill="#EFE6B9" stroke="#EFE6B9" d="M237.28 215.42 L216.2 171.37 L195.12 215.42 L216.2 238.69Z"/>
    <path fill="#DBCA9E" stroke="#DBCA9E" d="M284.5 314.1 L237.28 215.42 L216.2 238.69Z M195.12 215.42 L147.9 314.1 L216.2 238.69Z"/>
    <path fill="#262525" stroke="#262525" d="M147.9 314.1 L284.5 314.1 L216.2 238.69Z"/>
  </g>
  <g id="wordmark" fill="#FFFFFF">
    <path d="M419.64 244.5H458.97V88.5H419.64Z"/>
    <path d="M542.31 247.03Q571.8 247.03 588.24 234.19Q604.69 221.34 604.69 198.18Q604.69 186.19 600.73 177.89Q596.77 169.58 590.28 164.08Q583.79 158.58 576.06 155.03Q568.33 151.48 560.52 148.84Q552.71 146.2 546.22 143.64Q539.73 141.09 535.77 137.79Q531.81 134.49 531.81 129.26Q531.81 123.87 536.48 121.06Q541.16 118.26 549.13 118.26Q557.88 118.26 565.11 121.72Q572.35 125.19 579.44 132.34L604.53 107.42Q595.23 97.36 580.93 91.66Q566.63 85.97 549.63 85.97Q532.74 85.97 519.98 91.61Q507.22 97.25 500.1 107.89Q492.97 118.53 492.97 133.33Q492.97 145.05 496.93 153Q500.89 160.94 507.38 166.2Q513.88 171.45 521.6 175.05Q529.33 178.66 537.14 181.27Q544.95 183.88 551.44 186.58Q557.94 189.27 561.9 192.88Q565.86 196.48 565.86 202.03Q565.86 207.98 560.49 211.36Q555.13 214.74 545.17 214.74Q533.68 214.74 524.38 210.23Q515.09 205.72 507.05 197.3L482.14 222.22Q494.07 234.98 508.4 241.01Q522.73 247.03 542.31 247.03Z"/>
    <path d="M670.49 244.5H709.82V179.24L764.33 88.5H719.99L690.35 141.42L660.7 88.5H615.43L670.49 180.83Z"/>
    <path d="M784.86 244.5H824.19V157.94L892.4 244.5H921.55V88.5H882.22V177.15L812.36 88.5H784.86Z"/>
    <path d="M1053.54 247.03Q1083.03 247.03 1099.47 234.19Q1115.92 221.34 1115.92 198.18Q1115.92 186.19 1111.96 177.89Q1108 169.58 1101.51 164.08Q1095.02 158.58 1087.29 155.03Q1079.56 151.48 1071.75 148.84Q1063.94 146.2 1057.45 143.64Q1050.96 141.09 1047 137.79Q1043.03 134.49 1043.03 129.26Q1043.03 123.87 1047.71 121.06Q1052.39 118.26 1060.36 118.26Q1069.11 118.26 1076.34 121.72Q1083.58 125.19 1090.67 132.34L1115.75 107.42Q1106.46 97.36 1092.16 91.66Q1077.85 85.97 1060.86 85.97Q1043.97 85.97 1031.21 91.61Q1018.45 97.25 1011.32 107.89Q1004.2 118.53 1004.2 133.33Q1004.2 145.05 1008.16 153Q1012.12 160.94 1018.61 166.2Q1025.1 171.45 1032.83 175.05Q1040.56 178.66 1048.37 181.27Q1056.18 183.88 1062.67 186.58Q1069.16 189.27 1073.12 192.88Q1077.08 196.48 1077.08 202.03Q1077.08 207.98 1071.72 211.36Q1066.36 214.74 1056.4 214.74Q1044.91 214.74 1035.61 210.23Q1026.31 205.72 1018.28 197.3L993.36 222.22Q1005.3 234.98 1019.63 241.01Q1033.96 247.03 1053.54 247.03Z"/>
    <path d="M1178.42 244.5H1217.75V122.33H1265.6V88.5H1130.72V122.33H1178.42Z"/>
    <path d="M1357.21 247.03Q1377.11 247.03 1391.99 238.7Q1406.88 230.37 1415.21 215.81Q1423.54 201.26 1423.54 182.4V88.5H1384.04V185.31Q1384.04 193.68 1380.57 199.63Q1377.1 205.57 1371.08 208.75Q1365.06 211.94 1357.21 211.94Q1349.56 211.94 1343.31 208.75Q1337.06 205.57 1333.4 199.54Q1329.75 193.51 1329.75 185.09V88.5H1290.42V182.18Q1290.42 201.04 1298.86 215.7Q1307.29 230.37 1322.31 238.7Q1337.32 247.03 1357.21 247.03Z"/>
    <path d="M1458.75 244.5H1523.33Q1541.15 244.5 1556.28 238.92Q1571.4 233.33 1582.62 222.96Q1593.85 212.6 1600.03 198.27Q1606.22 183.94 1606.22 166.5Q1606.22 149.01 1600.03 134.71Q1593.85 120.4 1582.6 110.04Q1571.35 99.67 1556.14 94.08Q1540.93 88.5 1522.89 88.5H1458.75ZM1498.08 122.33H1522.72Q1535.87 122.33 1545.55 127.42Q1555.23 132.51 1560.65 142.3Q1566.07 152.09 1566.07 166.28Q1566.07 180.53 1560.76 190.51Q1555.45 200.49 1545.69 205.58Q1535.92 210.67 1522.72 210.67H1498.08V122.33Z"/>
    <path d="M1636.15 244.5H1675.48V88.5H1636.15Z"/>
    <path d="M1789.03 247.36Q1806.79 247.36 1821.89 241.28Q1836.99 235.2 1848.24 224.17Q1859.49 213.15 1865.71 198.4Q1871.92 183.66 1871.92 166.5Q1871.92 149.17 1865.71 134.43Q1859.49 119.69 1848.21 108.72Q1836.94 97.74 1821.76 91.69Q1806.57 85.64 1788.59 85.64Q1770.6 85.64 1755.42 91.69Q1740.24 97.74 1728.99 108.72Q1717.74 119.69 1711.52 134.32Q1705.31 148.95 1705.31 166.28Q1705.31 183.44 1711.6 198.27Q1717.9 213.09 1729.26 224.06Q1740.62 235.04 1755.83 241.2Q1771.04 247.36 1789.03 247.36ZM1788.59 212.27Q1778.8 212.27 1770.85 209.02Q1762.9 205.78 1757.21 199.75Q1751.51 193.73 1748.49 185.23Q1745.46 176.73 1745.46 166.28Q1745.46 152.47 1750.77 142.21Q1756.08 131.96 1765.79 126.34Q1775.5 120.73 1788.59 120.73Q1798.43 120.73 1806.35 123.95Q1814.28 127.17 1820 133.22Q1825.72 139.27 1828.74 147.63Q1831.77 155.99 1831.77 166.28Q1831.77 180.09 1826.46 190.46Q1821.15 200.82 1811.44 206.55Q1801.73 212.27 1788.59 212.27Z"/>
  </g>
</svg>
